<svg xmlns="http://www.w3.org/2000/svg" version="1.1" xmlns:xlink="http://www.w3.org/1999/xlink" xmlns:svgjs="http://svgjs.dev/svgjs" width="1500" height="1500" viewBox="0 0 1500 1500"><rect width="1500" height="1500" fill="#000000"></rect><g transform="matrix(0.6666666666666666,0,0,0.6666666666666666,249.39393939393938,438.58569500674776)"><svg viewBox="0 0 396 247" data-background-color="#000000" preserveAspectRatio="xMidYMid meet" height="935" width="1500" xmlns="http://www.w3.org/2000/svg" xmlns:xlink="http://www.w3.org/1999/xlink"><g id="tight-bounds" transform="matrix(1,0,0,1,0.2400000000000091,-0.09999999999999432)"><svg viewBox="0 0 395.52 247.2" height="247.2" width="395.52"><rect width="395.52" height="247.2" fill="#ffffff" mask="url(#3a815bfe-319d-4bf1-89a5-6e3261601258)" data-fill-palette-color="tertiary"></rect><g><svg></svg></g><g><svg viewBox="0 0 395.52 247.2" height="247.2" width="395.52"><g transform="matrix(1,0,0,1,75.54432000000001,50.967569851072014)"><svg viewBox="0 0 244.43135999999996 145.26486029785596" height="145.26486029785596" width="244.43135999999996"><g><svg viewBox="0 0 244.43135999999996 145.26486029785596" height="145.26486029785596" width="244.43135999999996"><g><svg viewBox="0 0 244.43136 145.264860297856" height="145.26486029785596" width="244.43135999999996"><g><svg viewBox="0 0 244.43136 145.264860297856" height="145.264860297856" width="244.43136"><g id="textblocktransform"><svg viewBox="0 0 244.43136 145.264860297856" height="145.264860297856" width="244.43136" id="textblock"><g><svg viewBox="0 0 244.43136 145.264860297856" height="145.264860297856" width="244.43136"><g transform="matrix(1,0,0,1,0,0)"><svg width="244.43136" viewBox="2.4 -32.5 55.52391303185702 33" height="145.264860297856" data-palette-color="url(#260e22ab-a7e2-457e-8c15-1119987eeb43)"></svg></g></svg></g></svg></g></svg></g></svg></g></svg></g></svg></g><g><path d="M245.816 0c68.262 0 123.6 55.338 123.6 123.6 0 68.262-55.338 123.6-123.6 123.6-32.903 0-62.804-12.857-84.952-33.821h9.845c20.326 17.023 46.52 27.271 75.107 27.271 64.645 0 117.05-52.405 117.05-117.05 0-64.645-52.405-117.05-117.05-117.05-28.587 0-54.78 10.248-75.107 27.271l-9.845 0c22.148-20.964 52.048-33.821 84.952-33.821z" fill="#ffffff" stroke="transparent" data-fill-palette-color="tertiary"></path></g></svg></g><defs></defs><mask id="73245331-ad6a-451a-9244-38e35da11fa9"><g id="SvgjsG1425"><svg viewBox="0 0 395.52 247.2" height="247.2" width="395.52"><g><svg></svg></g><g><svg viewBox="0 0 395.52 247.2" height="247.2" width="395.52"><g transform="matrix(1,0,0,1,75.54432000000001,50.967569851072014)"><svg viewBox="0 0 244.43135999999996 145.26486029785596" height="145.26486029785596" width="244.43135999999996"><g><svg viewBox="0 0 244.43135999999996 145.26486029785596" height="145.26486029785596" width="244.43135999999996"><g><svg viewBox="0 0 244.43136 145.264860297856" height="145.26486029785596" width="244.43135999999996"><g><svg viewBox="0 0 244.43136 145.264860297856" height="145.264860297856" width="244.43136"><g id="SvgjsG1424"><svg viewBox="0 0 244.43136 145.264860297856" height="145.264860297856" width="244.43136" id="SvgjsSvg1423"><g><svg viewBox="0 0 244.43136 145.264860297856" height="145.264860297856" width="244.43136"><g transform="matrix(1,0,0,1,0,0)"><svg width="244.43136" viewBox="2.4 -32.5 55.52391303185702 33" height="145.264860297856" data-palette-color="url(#260e22ab-a7e2-457e-8c15-1119987eeb43)"><path d="M12.75-32.5L12.75-32.5Q14.3-32.5 15.33-32.33 16.35-32.15 17.43-31.85 18.5-31.55 20.1-31.15L20.1-31.15Q20.4-29.25 20.58-27.23 20.75-25.2 20.8-24.2L20.8-24.2Q20.85-23.95 20.45-23.83 20.05-23.7 19.8-23.7L19.8-23.7Q19.45-23.7 19.25-23.9L19.25-23.9Q19.15-24.8 18.65-26 18.15-27.2 17.28-28.3 16.4-29.4 15.18-30.13 13.95-30.85 12.4-30.85L12.4-30.85Q10.4-30.85 9.25-30 8.1-29.15 7.6-27.9 7.1-26.65 7.1-25.45L7.1-25.45Q7.1-23.5 8.13-22.2 9.15-20.9 10.73-19.9 12.3-18.9 13.9-17.85L13.9-17.85Q15.1-17.1 16.55-16.2 18-15.3 19.35-14.2 20.7-13.1 21.55-11.68 22.4-10.25 22.4-8.45L22.4-8.45Q22.4-5.8 20.93-3.78 19.45-1.75 17.13-0.63 14.8 0.5 12.2 0.5L12.2 0.5Q9.75 0.5 7.48-0.05 5.2-0.6 3.4-0.95L3.4-0.95Q3.1-2.4 2.88-4.05 2.65-5.7 2.53-6.95 2.4-8.2 2.4-8.5L2.4-8.5Q2.65-8.75 2.98-8.93 3.3-9.1 3.65-9.1L3.65-9.1Q4.1-9.1 4.2-8.65L4.2-8.65Q4.35-7.95 4.83-6.73 5.3-5.5 6.23-4.2 7.15-2.9 8.63-2.02 10.1-1.15 12.3-1.15L12.3-1.15Q14.65-1.15 16.4-2.73 18.15-4.3 18.15-7.15L18.15-7.15Q18.15-9.2 17.23-10.35 16.3-11.5 14.83-12.35 13.35-13.2 11.65-14.15L11.65-14.15Q9.8-15.25 7.83-16.57 5.85-17.9 4.5-19.7 3.15-21.5 3.15-23.95L3.15-23.95Q3.15-26.55 4.53-28.48 5.9-30.4 8.1-31.45 10.3-32.5 12.75-32.5ZM32.5-32.1L32.5-32.1Q33.95-32.1 35.32-32.18 36.7-32.25 38.2-32.3L38.2-32.3Q38.4-32.1 38.37-31.53 38.35-30.95 38.2-30.75L38.2-30.75Q37.9-30.75 37.1-30.68 36.3-30.6 35.6-30.45 34.9-30.3 34.8-30L34.8-30Q34.65-29.5 34.62-28.7 34.6-27.9 34.6-26.95L34.6-26.95Q34.6-26.8 34.6-26.65 34.6-26.5 34.6-26.35L34.6-26.35 34.6-17.8Q34.6-17.75 34.65-17.73 34.7-17.7 34.7-17.7L34.7-17.7Q36.5-17.65 38.4-17.6 40.3-17.55 42.35-17.55L42.35-17.55Q44.1-17.55 46.12-17.6 48.15-17.65 49.8-17.7L49.8-17.7Q49.8-17.7 49.85-17.75 49.9-17.8 49.9-17.85L49.9-17.85 49.9-26.35Q49.9-27.45 49.87-28.43 49.85-29.4 49.65-30L49.65-30Q49.6-30.3 48.87-30.45 48.15-30.6 47.37-30.68 46.6-30.75 46.3-30.75L46.3-30.75Q46.15-30.95 46.12-31.53 46.1-32.1 46.3-32.3L46.3-32.3Q47.8-32.25 49.22-32.18 50.65-32.1 52.05-32.1L52.05-32.1Q53.5-32.1 54.87-32.18 56.25-32.25 57.75-32.3L57.75-32.3Q57.95-32.1 57.92-31.53 57.9-30.95 57.75-30.75L57.75-30.75Q57.45-30.75 56.67-30.68 55.9-30.6 55.2-30.45 54.5-30.3 54.4-30L54.4-30Q54.2-29.4 54.17-28.43 54.15-27.45 54.15-26.35L54.15-26.35 54.15-5.8Q54.15-4.7 54.17-3.75 54.2-2.8 54.4-2.2L54.4-2.2Q54.5-1.95 55.2-1.75 55.9-1.55 56.67-1.48 57.45-1.4 57.75-1.4L57.75-1.4Q57.9-1.2 57.92-0.63 57.95-0.05 57.75 0.15L57.75 0.15Q56.25 0.05 54.87-0.03 53.5-0.1 52.05-0.1L52.05-0.1Q50.65-0.1 49.22-0.03 47.8 0.05 46.3 0.15L46.3 0.15Q46.1-0.05 46.12-0.63 46.15-1.2 46.3-1.4L46.3-1.4Q46.6-1.4 47.37-1.48 48.15-1.55 48.87-1.75 49.6-1.95 49.65-2.2L49.65-2.2Q49.85-2.8 49.87-3.75 49.9-4.7 49.9-5.8L49.9-5.8 49.9-15.5Q49.9-15.6 49.85-15.63 49.8-15.65 49.8-15.65L49.8-15.65Q48.1-15.7 46.17-15.78 44.25-15.85 42.35-15.85L42.35-15.85Q38.95-15.85 37.35-15.8 35.75-15.75 35.25-15.7 34.75-15.65 34.65-15.6L34.65-15.6Q34.6-15.55 34.6-15.53 34.6-15.5 34.6-15.5L34.6-15.5 34.6-5.8Q34.6-5.65 34.6-5.5 34.6-5.35 34.6-5.2L34.6-5.2Q34.6-4.25 34.62-3.48 34.65-2.7 34.8-2.2L34.8-2.2Q34.9-1.95 35.6-1.75 36.3-1.55 37.1-1.48 37.9-1.4 38.2-1.4L38.2-1.4Q38.35-1.2 38.37-0.63 38.4-0.05 38.2 0.15L38.2 0.15Q36.7 0.05 35.32-0.03 33.95-0.1 32.5-0.1L32.5-0.1Q31.1-0.1 29.65-0.03 28.2 0.05 26.7 0.15L26.7 0.15Q26.5-0.05 26.52-0.63 26.55-1.2 26.7-1.4L26.7-1.4Q27-1.4 27.8-1.48 28.6-1.55 29.32-1.75 30.05-1.95 30.1-2.2L30.1-2.2Q30.3-2.8 30.32-3.75 30.35-4.7 30.35-5.8L30.35-5.8 30.35-26.35Q30.35-27.45 30.32-28.43 30.3-29.4 30.1-30L30.1-30Q30.05-30.3 29.32-30.45 28.6-30.6 27.8-30.68 27-30.75 26.7-30.75L26.7-30.75Q26.55-30.95 26.52-31.53 26.5-32.1 26.7-32.3L26.7-32.3Q28.2-32.25 29.65-32.18 31.1-32.1 32.5-32.1Z" opacity="1" transform="matrix(1,0,0,1,0,0)" fill="white" class="wordmark-text-0" id="SvgjsPath1422"></path></svg></g></svg></g></svg></g></svg></g></svg></g></svg></g></svg></g><g><path d="M245.816 0c68.262 0 123.6 55.338 123.6 123.6 0 68.262-55.338 123.6-123.6 123.6-32.903 0-62.804-12.857-84.952-33.821h9.845c20.326 17.023 46.52 27.271 75.107 27.271 64.645 0 117.05-52.405 117.05-117.05 0-64.645-52.405-117.05-117.05-117.05-28.587 0-54.78 10.248-75.107 27.271l-9.845 0c22.148-20.964 52.048-33.821 84.952-33.821z" fill="black" stroke="transparent"></path></g></svg></g><defs><mask></mask></defs></svg><rect width="395.52" height="247.2" fill="black" stroke="none" visibility="hidden"></rect></g></mask><linearGradient x1="0" x2="1" y1="0.5" y2="0.5" id="260e22ab-a7e2-457e-8c15-1119987eeb43"><stop stop-color="#ffa62e" offset="0"></stop><stop stop-color="#f71b3d" offset="1"></stop></linearGradient><rect width="395.52" height="247.2" fill="#ffffff" mask="url(#73245331-ad6a-451a-9244-38e35da11fa9)" data-fill-palette-color="primary"></rect><mask id="3a815bfe-319d-4bf1-89a5-6e3261601258"><g id="SvgjsG1448"><svg viewBox="0 0 395.52 247.2" height="247.2" width="395.52"><g><svg></svg></g><g><svg viewBox="0 0 395.52 247.2" height="247.2" width="395.52"><g transform="matrix(1,0,0,1,75.54432000000001,50.967569851072014)"><svg viewBox="0 0 244.43135999999996 145.26486029785596" height="145.26486029785596" width="244.43135999999996"><g><svg viewBox="0 0 244.43135999999996 145.26486029785596" height="145.26486029785596" width="244.43135999999996"><g><svg viewBox="0 0 244.43136 145.264860297856" height="145.26486029785596" width="244.43135999999996"><g><svg viewBox="0 0 244.43136 145.264860297856" height="145.264860297856" width="244.43136"><g id="SvgjsG1447"><svg viewBox="0 0 244.43136 145.264860297856" height="145.264860297856" width="244.43136" id="SvgjsSvg1446"><g><svg viewBox="0 0 244.43136 145.264860297856" height="145.264860297856" width="244.43136"><g transform="matrix(1,0,0,1,0,0)"><svg width="244.43136" viewBox="2.4 -32.5 55.52391303185702 33" height="145.264860297856" data-palette-color="url(#260e22ab-a7e2-457e-8c15-1119987eeb43)"></svg></g></svg></g></svg></g></svg></g></svg></g></svg></g></svg></g><g><path d="M245.816 0c68.262 0 123.6 55.338 123.6 123.6 0 68.262-55.338 123.6-123.6 123.6-32.903 0-62.804-12.857-84.952-33.821h9.845c20.326 17.023 46.52 27.271 75.107 27.271 64.645 0 117.05-52.405 117.05-117.05 0-64.645-52.405-117.05-117.05-117.05-28.587 0-54.78 10.248-75.107 27.271l-9.845 0c22.148-20.964 52.048-33.821 84.952-33.821z" fill="white" stroke="transparent"></path></g></svg></g><defs><mask></mask></defs><mask><g id="SvgjsG1445"><svg viewBox="0 0 395.52 247.2" height="247.2" width="395.52"><g><svg></svg></g><g><svg viewBox="0 0 395.52 247.2" height="247.2" width="395.52"><g transform="matrix(1,0,0,1,75.54432000000001,50.967569851072014)"><svg viewBox="0 0 244.43135999999996 145.26486029785596" height="145.26486029785596" width="244.43135999999996"><g><svg viewBox="0 0 244.43135999999996 145.26486029785596" height="145.26486029785596" width="244.43135999999996"><g><svg viewBox="0 0 244.43136 145.264860297856" height="145.26486029785596" width="244.43135999999996"><g><svg viewBox="0 0 244.43136 145.264860297856" height="145.264860297856" width="244.43136"><g id="SvgjsG1444"><svg viewBox="0 0 244.43136 145.264860297856" height="145.264860297856" width="244.43136" id="SvgjsSvg1443"><g><svg viewBox="0 0 244.43136 145.264860297856" height="145.264860297856" width="244.43136"><g transform="matrix(1,0,0,1,0,0)"><svg width="244.43136" viewBox="2.4 -32.5 55.52391303185702 33" height="145.264860297856" data-palette-color="url(#260e22ab-a7e2-457e-8c15-1119987eeb43)"><path d="M12.75-32.5L12.75-32.5Q14.3-32.5 15.33-32.33 16.35-32.15 17.43-31.85 18.5-31.55 20.1-31.15L20.1-31.15Q20.4-29.25 20.58-27.23 20.75-25.2 20.8-24.2L20.8-24.2Q20.85-23.95 20.45-23.83 20.05-23.7 19.8-23.7L19.8-23.7Q19.45-23.7 19.25-23.9L19.25-23.9Q19.15-24.8 18.65-26 18.15-27.2 17.28-28.3 16.4-29.4 15.18-30.13 13.95-30.85 12.4-30.85L12.4-30.85Q10.4-30.85 9.25-30 8.1-29.15 7.6-27.9 7.1-26.65 7.1-25.45L7.1-25.45Q7.1-23.5 8.13-22.2 9.15-20.9 10.73-19.9 12.3-18.9 13.9-17.85L13.9-17.85Q15.1-17.1 16.55-16.2 18-15.3 19.35-14.2 20.7-13.1 21.55-11.68 22.4-10.25 22.4-8.45L22.4-8.45Q22.4-5.8 20.93-3.78 19.45-1.75 17.13-0.63 14.8 0.5 12.2 0.5L12.2 0.5Q9.75 0.5 7.48-0.05 5.2-0.6 3.4-0.95L3.4-0.95Q3.1-2.4 2.88-4.05 2.65-5.7 2.53-6.95 2.4-8.2 2.4-8.5L2.4-8.5Q2.65-8.75 2.98-8.93 3.3-9.1 3.65-9.1L3.65-9.1Q4.1-9.1 4.2-8.65L4.2-8.65Q4.35-7.95 4.83-6.73 5.3-5.5 6.23-4.2 7.15-2.9 8.63-2.02 10.1-1.15 12.3-1.15L12.3-1.15Q14.65-1.15 16.4-2.73 18.15-4.3 18.15-7.15L18.15-7.15Q18.15-9.2 17.23-10.35 16.3-11.5 14.83-12.35 13.35-13.2 11.65-14.15L11.65-14.15Q9.8-15.25 7.83-16.57 5.85-17.9 4.5-19.7 3.15-21.5 3.15-23.95L3.15-23.95Q3.15-26.55 4.53-28.48 5.9-30.4 8.1-31.45 10.3-32.5 12.75-32.5ZM32.5-32.1L32.5-32.1Q33.95-32.1 35.32-32.18 36.7-32.25 38.2-32.3L38.2-32.3Q38.4-32.1 38.37-31.53 38.35-30.95 38.2-30.75L38.2-30.75Q37.9-30.75 37.1-30.68 36.3-30.6 35.6-30.45 34.9-30.3 34.8-30L34.8-30Q34.65-29.5 34.62-28.7 34.6-27.9 34.6-26.95L34.6-26.95Q34.6-26.8 34.6-26.65 34.6-26.5 34.6-26.35L34.6-26.35 34.6-17.8Q34.6-17.75 34.65-17.73 34.7-17.7 34.7-17.7L34.7-17.7Q36.5-17.65 38.4-17.6 40.3-17.55 42.35-17.55L42.35-17.55Q44.1-17.55 46.12-17.6 48.15-17.65 49.8-17.7L49.8-17.7Q49.8-17.7 49.85-17.75 49.9-17.8 49.9-17.85L49.9-17.85 49.9-26.35Q49.9-27.45 49.87-28.43 49.85-29.4 49.65-30L49.65-30Q49.6-30.3 48.87-30.45 48.15-30.6 47.37-30.68 46.6-30.75 46.3-30.75L46.3-30.75Q46.15-30.95 46.12-31.53 46.1-32.1 46.3-32.3L46.3-32.3Q47.8-32.25 49.22-32.18 50.65-32.1 52.05-32.1L52.05-32.1Q53.5-32.1 54.87-32.18 56.25-32.25 57.75-32.3L57.75-32.3Q57.95-32.1 57.92-31.53 57.9-30.95 57.75-30.75L57.75-30.75Q57.45-30.75 56.67-30.68 55.9-30.6 55.2-30.45 54.5-30.3 54.4-30L54.4-30Q54.2-29.4 54.17-28.43 54.15-27.45 54.15-26.35L54.15-26.35 54.15-5.8Q54.15-4.7 54.17-3.75 54.2-2.8 54.4-2.2L54.4-2.2Q54.5-1.95 55.2-1.75 55.9-1.55 56.67-1.48 57.45-1.4 57.75-1.4L57.75-1.4Q57.9-1.2 57.92-0.63 57.95-0.05 57.75 0.15L57.75 0.15Q56.25 0.05 54.87-0.03 53.5-0.1 52.05-0.1L52.05-0.1Q50.65-0.1 49.22-0.03 47.8 0.05 46.3 0.15L46.3 0.15Q46.1-0.05 46.12-0.63 46.15-1.2 46.3-1.4L46.3-1.4Q46.6-1.4 47.37-1.48 48.15-1.55 48.87-1.75 49.6-1.95 49.65-2.2L49.65-2.2Q49.85-2.8 49.87-3.75 49.9-4.7 49.9-5.8L49.9-5.8 49.9-15.5Q49.9-15.6 49.85-15.63 49.8-15.65 49.8-15.65L49.8-15.65Q48.1-15.7 46.17-15.78 44.25-15.85 42.35-15.85L42.35-15.85Q38.95-15.85 37.35-15.8 35.75-15.75 35.25-15.7 34.75-15.65 34.65-15.6L34.65-15.6Q34.6-15.55 34.6-15.53 34.6-15.5 34.6-15.5L34.6-15.5 34.6-5.8Q34.6-5.65 34.6-5.5 34.6-5.35 34.6-5.2L34.6-5.2Q34.6-4.25 34.62-3.48 34.65-2.7 34.8-2.2L34.8-2.2Q34.9-1.95 35.6-1.75 36.3-1.55 37.1-1.48 37.9-1.4 38.2-1.4L38.2-1.4Q38.35-1.2 38.37-0.63 38.4-0.05 38.2 0.15L38.2 0.15Q36.7 0.05 35.32-0.03 33.95-0.1 32.5-0.1L32.5-0.1Q31.1-0.1 29.65-0.03 28.2 0.05 26.7 0.15L26.7 0.15Q26.5-0.05 26.52-0.63 26.55-1.2 26.7-1.4L26.7-1.4Q27-1.4 27.8-1.48 28.6-1.55 29.32-1.75 30.05-1.95 30.1-2.2L30.1-2.2Q30.3-2.8 30.32-3.75 30.35-4.7 30.35-5.8L30.35-5.8 30.35-26.35Q30.35-27.45 30.32-28.43 30.3-29.4 30.1-30L30.1-30Q30.05-30.3 29.32-30.45 28.6-30.6 27.8-30.68 27-30.75 26.7-30.75L26.7-30.75Q26.55-30.95 26.52-31.53 26.5-32.1 26.7-32.3L26.7-32.3Q28.2-32.25 29.65-32.18 31.1-32.1 32.5-32.1Z" opacity="1" transform="matrix(1,0,0,1,0,0)" fill="black" class="wordmark-text-0" id="SvgjsPath1442"></path></svg></g></svg></g></svg></g></svg></g></svg></g></svg></g></svg></g><g><path d="M245.816 0c68.262 0 123.6 55.338 123.6 123.6 0 68.262-55.338 123.6-123.6 123.6-32.903 0-62.804-12.857-84.952-33.821h9.845c20.326 17.023 46.52 27.271 75.107 27.271 64.645 0 117.05-52.405 117.05-117.05 0-64.645-52.405-117.05-117.05-117.05-28.587 0-54.78 10.248-75.107 27.271l-9.845 0c22.148-20.964 52.048-33.821 84.952-33.821z" fill="black" stroke="transparent"></path></g></svg></g><defs><mask></mask></defs></svg><rect width="395.52" height="247.2" fill="black" stroke="none" visibility="hidden"></rect></g></mask></svg><rect width="395.52" height="247.2" fill="black" stroke="none" visibility="hidden"></rect></g></mask><linearGradient x1="0" x2="1" y1="0.5" y2="0.5" id="bbb21488-9b9e-4d4d-9387-24a9ad31d238"><stop stop-color="#ffa62e" offset="0"></stop><stop stop-color="#f71b3d" offset="1"></stop></linearGradient></svg><rect width="395.52" height="247.2" fill="none" stroke="none" visibility="hidden"></rect></g></svg></g></svg>